<svg width="87" height="64" viewBox="0 0 87 64" fill="none" xmlns="http://www.w3.org/2000/svg">
<path d="M20.1087 47.4426H28.1839C27.8597 46.1772 27.6857 44.8524 27.6857 43.4881C27.6857 34.7525 34.7643 27.6739 43.4999 27.6739C52.2355 27.6739 59.3141 34.7525 59.3141 43.4881C59.3141 44.8524 59.1401 46.1772 58.8158 47.4426H66.891C67.1125 46.1574 67.2192 44.8366 67.2192 43.4881C67.2192 30.3906 56.5973 19.7687 43.4999 19.7687C30.4024 19.7687 19.7805 30.3906 19.7805 43.4881C19.7805 44.8366 19.8912 46.1574 20.1087 47.4426Z" fill="white"/>
<path d="M43.5002 15.8142C45.6831 15.8142 47.4547 14.0584 47.4547 11.8241V3.99014C47.4547 1.78745 45.7029 0 43.5002 0C41.3173 0 39.5457 1.75186 39.5457 3.99014V11.8241C39.5457 14.0268 41.3015 15.8142 43.5002 15.8142Z" fill="white"/>
<path d="M11.8241 39.5455H3.99014C1.78745 39.5455 0 41.2973 0 43.5C0 45.5761 1.58577 47.2805 3.66586 47.4427H12.1444C14.1968 47.2805 15.8142 45.592 15.8142 43.5C15.8142 41.3171 14.0584 39.5455 11.8241 39.5455Z" fill="white"/>
<path d="M74.2544 12.7415C72.7082 11.1993 70.2168 11.1874 68.639 12.7692L63.1026 18.3056C61.5405 19.8637 61.5287 22.3669 63.0749 23.925C64.6211 25.4633 67.1125 25.4791 68.6943 23.8973L74.2307 18.3609C75.7927 16.7989 75.8125 14.2996 74.2544 12.7415Z" fill="white"/>
<path d="M23.9251 23.925C25.4635 22.3788 25.4793 19.8874 23.8975 18.3056L18.3611 12.7692C16.799 11.2072 14.2958 11.1874 12.7417 12.7415C11.1994 14.2878 11.1875 16.7791 12.7694 18.3609L18.3057 23.8973C19.8638 25.4554 22.367 25.4752 23.9251 23.925Z" fill="white"/>
<path d="M83.006 39.5455H75.172C72.9693 39.5455 71.1819 41.2973 71.1819 43.5C71.1819 45.5761 72.7716 47.2805 74.8477 47.4427H83.3342C85.3866 47.2805 87.0001 45.592 87.0001 43.5C87.0001 41.3171 85.2482 39.5455 83.006 39.5455Z" fill="white"/>
<path d="M63.2608 55.3636H23.7391C21.5483 55.3636 19.7727 57.1155 19.7727 59.3182C19.7727 61.5051 21.576 63.2727 23.7391 63.2727H63.2608C65.4517 63.2727 67.2272 61.5209 67.2272 59.3182C67.2272 57.1313 65.424 55.3636 63.2608 55.3636Z" fill="white"/>
</svg>
