<svg width="63" height="65" viewBox="0 0 63 65" fill="none" xmlns="http://www.w3.org/2000/svg">
<path d="M59.8102 26.1929C57.9124 24.295 55.7904 23.9401 53.9412 24.2988L54.0831 23.5217C54.0831 22.7596 54.0831 21.6127 53.321 20.8468C52.5589 20.0847 51.793 19.6999 50.6461 19.6999H4.43701C3.2901 19.6999 2.52798 20.081 1.76212 20.8468C1 21.6089 1 22.3748 1 23.5217L4.05595 40.3257C5.58393 49.4898 13.6049 56.3638 23.15 56.3638H31.9331C41.4447 56.3638 49.432 49.912 51.001 40.4228C51.681 40.5872 52.3161 40.7068 52.9362 40.7068C55.9922 40.7068 58.6633 39.1788 60.1913 36.5076C62.4851 33.0669 62.1041 28.483 59.8102 26.1929ZM31.9331 52.9231H23.15C15.5139 52.9231 9.02094 47.5771 7.87402 39.9372L5.19913 23.899H49.8803L47.2054 39.9372C46.0622 47.5771 39.5692 52.9231 31.9331 52.9231ZM56.758 34.2101C56.1005 35.5288 54.5837 36.8327 51.737 36.4404L53.2612 28.0571C54.1018 27.5527 55.3235 27.0447 56.758 28.4792C57.9012 29.6299 57.9012 32.301 56.758 34.2101Z" fill="white" stroke="white" stroke-width="2" stroke-miterlimit="10"/>
<path d="M16.6572 12.4448C16.6572 14.7349 17.8041 16.2629 17.8041 16.644C18.1852 17.025 18.5663 17.4061 19.3321 17.4061C19.7132 17.4061 19.7132 17.4061 20.479 17.4061C21.6259 16.644 21.6259 15.4971 21.2412 14.7312C21.2412 14.7312 20.479 13.5843 20.479 12.4411C20.479 11.2979 21.2412 10.151 21.2412 10.151C21.2412 10.151 22.3881 8.24198 22.3881 5.95189C22.3881 3.66179 21.2412 2.13382 21.2412 1.75276C20.479 0.605841 19.3321 0.605841 18.5663 0.990636C17.4193 1.75276 17.4193 2.89967 17.8041 3.66553C17.8041 3.66553 18.5663 4.81245 18.5663 5.95563C18.5663 7.0988 17.8041 8.24572 17.8041 8.24572C17.8041 8.24572 16.6572 10.151 16.6572 12.4448Z" fill="white" stroke="white" stroke-miterlimit="10"/>
<path d="M25.0591 12.4448C25.0591 14.7349 26.206 16.644 26.206 16.644C26.5871 17.025 26.9681 17.4061 27.734 17.4061C28.115 17.4061 28.4961 17.4061 28.8809 17.4061C30.0278 16.644 30.0278 15.4971 29.643 14.7312C29.643 14.7312 28.8809 13.5843 28.8809 12.4411C28.8809 11.2979 29.643 10.151 29.643 10.151C29.643 10.151 30.7899 8.24198 30.7899 5.95189C30.7899 3.66179 29.643 2.13382 29.643 1.75276C28.8809 0.605841 27.734 0.605841 26.9681 0.990636C25.8212 1.75276 25.8212 2.89967 26.206 3.66553C26.206 3.66553 26.9681 4.81245 26.9681 5.95563C26.9681 7.0988 26.206 8.24572 26.206 8.24572C26.206 8.24572 25.0591 10.151 25.0591 12.4448Z" fill="white" stroke="white" stroke-miterlimit="10"/>
<path d="M33.4612 12.4448C33.4612 14.7349 34.6081 16.644 34.6081 16.644C34.9892 17.025 35.3702 17.4061 36.1361 17.4061C36.5171 17.4061 36.8982 17.4061 37.283 17.4061C38.4299 16.644 38.4299 15.497 38.0451 14.7312C38.0451 14.7312 37.283 13.5843 37.283 12.4411C37.283 11.2979 38.0451 10.151 38.0451 10.151C38.0451 10.151 39.192 8.24196 39.192 5.95187C39.192 3.66177 38.0451 2.1338 38.0451 1.75274C37.283 0.605822 36.5171 0.224761 35.3702 0.990617C34.2233 1.75274 34.2233 2.89965 34.6081 3.66551C34.6081 3.66551 35.3702 4.81243 35.3702 5.95561C35.3702 7.09879 34.6081 8.2457 34.6081 8.2457C34.6081 8.2457 33.4612 10.151 33.4612 12.4448Z" fill="white" stroke="white" stroke-miterlimit="10"/>
<path d="M52.5552 60.1819H2.90903C1.76212 60.1819 1 60.9441 1 62.091C1 63.2379 1.76212 64 2.90903 64H52.5552C53.7021 64 54.4642 63.2379 54.4642 62.091C54.4642 60.9441 53.7021 60.1819 52.5552 60.1819Z" fill="white" stroke="white" stroke-width="2" stroke-miterlimit="10"/>
</svg>
