<svg width="62" height="65" viewBox="0 0 62 65" fill="none" xmlns="http://www.w3.org/2000/svg">
<path d="M32.276 0C28.6775 0 25.7332 2.93461 25.7332 6.52134C25.7332 10.1407 28.6775 13.0427 32.276 13.0427C35.9072 13.0427 38.8187 10.1407 38.8187 6.52134C38.8187 2.93461 35.9072 0 32.276 0ZM2.83374 16.3034V22.8247H22.4619V42.3887L5.8761 58.9203L10.4887 63.5831L32.4722 41.6388L45.3614 49.334V61.9528H51.9041V47.508C51.9041 46.3342 51.3153 45.2907 50.2684 44.7038L38.8187 37.8238V22.8247H58.4468V16.3034H2.83374Z" fill="white"/>
<circle cx="3.27657" cy="19.5708" r="3.27657" fill="white"/>
<circle cx="8.05879" cy="61.3692" r="3.27657" fill="white"/>
<circle cx="58.1811" cy="19.5708" r="3.27657" fill="white"/>
<circle cx="48.6171" cy="61.7234" r="3.27657" fill="white"/>
</svg>
