<svg width="65" height="65" viewBox="0 0 65 65" fill="none" xmlns="http://www.w3.org/2000/svg">
<path d="M16.239 22.8438H16.739V22.3438V12.1875C16.739 11.9263 16.8808 11.5312 17.1736 11.1963C17.4582 10.8708 17.8374 10.6562 18.2689 10.6562C18.7004 10.6562 19.0795 10.8708 19.3642 11.1963C19.657 11.5312 19.7988 11.9263 19.7988 12.1875V25.5938C19.7988 28.9816 17.1611 31.6269 14.1471 32.0039L13.7091 32.0586V32.5V60.9375C13.7091 62.0427 13.3431 62.9249 12.739 63.5294C12.1349 64.1339 11.2536 64.5 10.1494 64.5C9.04518 64.5 8.16382 64.1339 7.55973 63.5294C6.95562 62.9249 6.58963 62.0427 6.58963 60.9375V32.5V32.0586L6.15169 32.0039C3.13765 31.6269 0.5 28.9816 0.5 25.5938V12.1875C0.5 11.9263 0.641747 11.5312 0.934615 11.1963C1.21923 10.8708 1.59841 10.6562 2.02988 10.6562C2.52511 10.6562 2.899 10.8192 3.14786 11.0683C3.39675 11.3173 3.55975 11.6916 3.55975 12.1875V22.3438V22.8438H4.05975H8.11951H8.61951V22.3438V12.1875C8.61951 11.9263 8.76125 11.5312 9.05412 11.1963C9.33874 10.8708 9.71792 10.6562 10.1494 10.6562C10.6446 10.6562 11.0185 10.8192 11.2674 11.0683C11.5163 11.3173 11.6793 11.6916 11.6793 12.1875V22.3438V22.8438H12.1793H16.239ZM30.9481 36.5625V36.0625H30.4481H26.8884V12.1875C26.8884 5.7249 31.6899 0.757013 38.0677 0.509663V60.9375C38.0677 62.0427 37.7017 62.9249 37.0975 63.5294C36.4935 64.1339 35.6121 64.5 34.5079 64.5C33.4037 64.5 32.5223 64.1339 31.9183 63.5294C31.3141 62.9249 30.9481 62.0427 30.9481 60.9375V36.5625ZM45.1556 21.5727L45.1573 21.552V21.5312C45.1573 17.9728 46.2446 14.7289 48.0007 12.3858C49.7561 10.0437 52.1569 8.625 54.8067 8.625C57.4564 8.625 59.8573 10.0437 61.6126 12.3858C63.3687 14.7289 64.456 17.9728 64.456 21.5312V21.552L64.4578 21.5727C64.8468 26.2447 62.5162 30.5517 58.5796 33.3092L58.3664 33.4585V33.7188V60.9375C58.3664 62.0427 58.0004 62.9249 57.3963 63.5294C56.7922 64.1339 55.9109 64.5 54.8067 64.5C53.7025 64.5 52.8211 64.1339 52.217 63.5294C51.6129 62.9249 51.2469 62.0427 51.2469 60.9375V33.7188V33.4585L51.0338 33.3092C47.0972 30.5517 44.7665 26.2447 45.1556 21.5727Z" fill="white" stroke="#5A78E6"/>
</svg>
