<svg width="66" height="65" viewBox="0 0 66 65" fill="none" xmlns="http://www.w3.org/2000/svg">
<path d="M9.86542 52.6156V65L14.8475 62.0108L30.5072 52.6156H46.0386C49.6658 52.6156 52.6156 49.6658 52.6156 46.0386V19.7308C52.6156 16.1037 49.6658 13.1539 46.0386 13.1539H6.57695C2.94976 13.1539 0 16.1037 0 19.7308V46.0386C0 49.6658 2.94976 52.6156 6.57695 52.6156H9.86542ZM6.57695 19.7308H46.0386V46.0386H28.6854L16.4424 53.3851V46.0386H6.57695V19.7308Z" fill="white"/>
<path d="M59.1924 0H19.7308C16.1036 0 13.1538 2.94976 13.1538 6.57695H52.6155C56.2427 6.57695 59.1924 9.52671 59.1924 13.1539V39.4617C62.8196 39.4617 65.7694 36.5119 65.7694 32.8847V6.57695C65.7694 2.94976 62.8196 0 59.1924 0Z" fill="white"/>
</svg>
