<svg width="65" height="65" viewBox="0 0 65 65" fill="none" xmlns="http://www.w3.org/2000/svg">
<path d="M26 45.5C27.7875 45.5 29.25 44.0375 29.25 42.25V22.75C29.25 20.9625 27.7875 19.5 26 19.5C24.2125 19.5 22.75 20.9625 22.75 22.75V42.25C22.75 44.0375 24.2125 45.5 26 45.5ZM32.5 0C14.56 0 0 14.56 0 32.5C0 50.44 14.56 65 32.5 65C50.44 65 65 50.44 65 32.5C65 14.56 50.44 0 32.5 0ZM32.5 58.5C18.1675 58.5 6.5 46.8325 6.5 32.5C6.5 18.1675 18.1675 6.5 32.5 6.5C46.8325 6.5 58.5 18.1675 58.5 32.5C58.5 46.8325 46.8325 58.5 32.5 58.5ZM39 45.5C40.7875 45.5 42.25 44.0375 42.25 42.25V22.75C42.25 20.9625 40.7875 19.5 39 19.5C37.2125 19.5 35.75 20.9625 35.75 22.75V42.25C35.75 44.0375 37.2125 45.5 39 45.5Z" fill="white"/>
</svg>
