<svg width="80" height="65" viewBox="0 0 80 65" fill="none" xmlns="http://www.w3.org/2000/svg">
<path d="M28.7154 63.5967C28.3583 63.8953 27.9421 64.1029 27.4986 64.2035C27.055 64.3041 26.5958 64.2952 26.1559 64.1774L2.26372 57.7963C1.61708 57.6246 1.04287 57.2266 0.632587 56.6657C0.222313 56.1048 -0.000408173 55.4133 -7.24792e-05 54.7015V10.034C0.000114441 9.32233 0.223026 8.63114 0.633221 8.07036C1.04342 7.50959 1.61734 7.11143 2.26372 6.9392L26.1559 0.558127C26.596 0.442787 27.0548 0.435585 27.4978 0.537062C27.9408 0.638539 28.3565 0.846051 28.7135 1.14398C29.0706 1.44191 29.3598 1.82249 29.5593 2.25707C29.7587 2.69166 29.8634 3.16892 29.8652 3.65295V6.84348H41.8113C42.6034 6.84348 43.363 7.17963 43.9231 7.77797C44.4832 8.37631 44.7979 9.18783 44.7979 10.034V54.7015C44.7979 55.5477 44.4832 56.3592 43.9231 56.9576C43.363 57.5559 42.6034 57.892 41.8113 57.892H29.8652V61.0826C29.8652 62.0653 29.4411 62.9937 28.7154 63.5967ZM23.8922 7.74002L5.97298 12.5258V52.2097L23.8922 56.9955V7.74002ZM38.8248 51.511V13.2246H29.8652V51.511H38.8248Z" fill="white"/>
<path d="M17.196 36.0656C15.864 35.7083 14.9322 34.4321 14.9322 32.9676V31.7648C14.9326 30.9186 15.2476 30.1072 15.808 29.5092C16.3684 28.9112 17.1282 28.5754 17.9202 28.5758C18.7123 28.5763 19.4718 28.9128 20.0316 29.5115C20.5914 30.1101 20.9057 30.9218 20.9053 31.768V32.9708C20.9051 33.4554 20.8017 33.9337 20.6027 34.3692C20.4038 34.8047 20.1145 35.1861 19.757 35.4844C19.3995 35.7828 18.983 35.9901 18.5393 36.0908C18.0956 36.1915 17.6362 36.1829 17.196 36.0656Z" fill="white"/>
<path d="M52.8655 32.3667L76.0738 32.3667" stroke="white" stroke-width="5" stroke-linecap="round" stroke-linejoin="round"/>
<path d="M67.9778 22.6516L77.423 32.3667L67.9778 41.812" stroke="white" stroke-width="5" stroke-linecap="round" stroke-linejoin="round"/>
</svg>
