<svg width="23" height="25" viewBox="0 0 23 25" fill="none" xmlns="http://www.w3.org/2000/svg">
<path d="M2.69027 0.454529H5.16839V4.19616H2.69027V0.454529ZM7.6465 0.454529H10.1246V4.19616H7.6465V0.454529ZM12.6027 0.454529H15.0808V4.19616H12.6027V0.454529ZM20.0371 9.18499H17.559V7.93778C17.559 7.607 17.4284 7.28977 17.196 7.05587C16.9637 6.82198 16.6485 6.69057 16.3199 6.69057H1.45122C1.1226 6.69057 0.807438 6.82198 0.57507 7.05587C0.342701 7.28977 0.212158 7.607 0.212158 7.93778V20.4099C0.212158 21.4022 0.603788 22.3539 1.30089 23.0556C1.998 23.7573 2.94347 24.1515 3.92933 24.1515H13.8418C14.8276 24.1515 15.7731 23.7573 16.4702 23.0556C17.1673 22.3539 17.559 21.4022 17.559 20.4099H20.0371C21.4038 20.4099 22.5152 19.2911 22.5152 17.9155V11.6794C22.5152 10.3037 21.4038 9.18499 20.0371 9.18499ZM17.559 17.9155V11.6794H20.0371L20.0396 17.9155H17.559Z" fill="white"/>
</svg>
