<svg width="69" height="56" viewBox="0 0 69 56" fill="none" xmlns="http://www.w3.org/2000/svg">
<path d="M8.33879 44.4736V54.9415L12.5499 52.4149L25.7863 44.4736H38.9143C41.9802 44.4736 44.4735 41.9803 44.4735 38.9144V16.6776C44.4735 13.6117 41.9802 11.1184 38.9143 11.1184H5.55919C2.4933 11.1184 0 13.6117 0 16.6776V38.9144C0 41.9803 2.4933 44.4736 5.55919 44.4736H8.33879ZM5.55919 16.6776H38.9143V38.9144H24.2464L13.898 45.124V38.9144H5.55919V16.6776Z" fill="white"/>
<path d="M50.0328 0H16.6776C13.6117 0 11.1184 2.4933 11.1184 5.55919H44.4736C47.5395 5.55919 50.0328 8.05249 50.0328 11.1184V33.3552C53.0986 33.3552 55.5919 30.8619 55.5919 27.796V5.55919C55.5919 2.4933 53.0986 0 50.0328 0Z" fill="white"/>
<circle cx="55" cy="41.9415" r="14" fill="#EBB908"/>
<path d="M54 41.3868H55.1562C55.7396 41.3816 56.2005 41.2306 56.5391 40.9337C56.8828 40.6368 57.0547 40.2071 57.0547 39.6446C57.0547 39.103 56.9115 38.6837 56.625 38.3868C56.3438 38.0847 55.9115 37.9337 55.3281 37.9337C54.8177 37.9337 54.3984 38.0821 54.0703 38.379C53.7422 38.6707 53.5781 39.0535 53.5781 39.5274H51.6797C51.6797 38.9441 51.8333 38.4129 52.1406 37.9337C52.4531 37.4545 52.8854 37.0821 53.4375 36.8165C53.9948 36.5457 54.6172 36.4102 55.3047 36.4102C56.4401 36.4102 57.3307 36.6967 57.9766 37.2696C58.6276 37.8373 58.9531 38.629 58.9531 39.6446C58.9531 40.155 58.7891 40.6368 58.4609 41.0899C58.138 41.5379 57.7188 41.8764 57.2031 42.1056C57.8281 42.3191 58.3021 42.655 58.625 43.1134C58.9531 43.5717 59.1172 44.1186 59.1172 44.754C59.1172 45.7748 58.7656 46.5873 58.0625 47.1915C57.3646 47.7957 56.4453 48.0977 55.3047 48.0977C54.2109 48.0977 53.3151 47.8061 52.6172 47.2227C51.9193 46.6394 51.5703 45.8634 51.5703 44.8946H53.4688C53.4688 45.3946 53.6354 45.8009 53.9688 46.1134C54.3073 46.4259 54.7604 46.5821 55.3281 46.5821C55.9167 46.5821 56.3802 46.4259 56.7188 46.1134C57.0573 45.8009 57.2266 45.3477 57.2266 44.754C57.2266 44.155 57.0495 43.6941 56.6953 43.3712C56.3411 43.0483 55.8151 42.8868 55.1172 42.8868H54V41.3868Z" fill="white"/>
</svg>
