<svg width="29" height="19" viewBox="0 0 29 19" fill="none" xmlns="http://www.w3.org/2000/svg">
<path d="M4.82835 2.50758H23.4142V13.8333H4.82835V2.50758ZM23.4142 16.0985C24.0304 16.0985 24.6213 15.8598 25.057 15.435C25.4927 15.0102 25.7374 14.4341 25.7374 13.8333V2.50758C25.7374 1.90683 25.4927 1.33068 25.057 0.905879C24.6213 0.481081 24.0304 0.242432 23.4142 0.242432H4.82835C3.53896 0.242432 2.50512 1.25042 2.50512 2.50758V13.8333C2.50512 14.4341 2.74989 15.0102 3.18558 15.435C3.62127 15.8598 4.21219 16.0985 4.82835 16.0985H0.181885V18.3636H28.0607V16.0985H23.4142Z" fill="white"/>
</svg>
