<svg width="29" height="24" viewBox="0 0 29 24" fill="none" xmlns="http://www.w3.org/2000/svg">
<path d="M2.0708 2.33929L3.55766 0.848511L24.1415 21.649L22.6663 23.1515L20.343 20.8039H0.90918V18.4562H5.55564C4.93949 18.4562 4.34856 18.2088 3.91287 17.7685C3.47718 17.3283 3.23241 16.7311 3.23241 16.1085V4.37004C3.23241 4.1118 3.27888 3.86529 3.34857 3.63052L2.0708 2.33929ZM5.55564 16.1085H15.6966L5.55564 5.86082V16.1085ZM24.1415 16.1085V4.37004H9.99302L7.66979 2.02235H24.1415C24.7577 2.02235 25.3486 2.2697 25.7843 2.70998C26.22 3.15025 26.4647 3.7474 26.4647 4.37004V16.1085C26.4647 16.7311 26.22 17.3283 25.7843 17.7685C25.3486 18.2088 24.7577 18.4562 24.1415 18.4562H28.788V20.8039H26.2556L21.6092 16.1085H24.1415Z" fill="white"/>
</svg>
