<svg width="34" height="28" viewBox="0 0 34 28" fill="none" xmlns="http://www.w3.org/2000/svg">
<path d="M32.4638 24.5025H1.73537C0.964365 24.5025 0.338623 25.1268 0.338623 25.8992C0.338623 26.6716 0.964365 27.296 1.73537 27.296H32.4638C33.2348 27.296 33.8605 26.6716 33.8605 25.8992C33.8605 25.1268 33.2348 24.5025 32.4638 24.5025Z" fill="white"/>
<path d="M15.0044 9.48757C15.0044 9.85072 15.0463 10.1999 15.1441 10.5351H5.92557V24.5026H3.13208V10.5351C3.13208 8.99871 4.38915 7.74164 5.92557 7.74164H15.0044V9.48757Z" fill="white"/>
<path d="M31.0672 13.4824V24.5027H28.2737V13.9014C29.014 13.7338 29.6844 13.3706 30.2291 12.8818L30.9275 13.3986C30.9694 13.4265 31.0113 13.4684 31.0672 13.4824Z" fill="white"/>
<path d="M15.7029 18.9156C17.2457 18.9156 18.4964 17.6649 18.4964 16.1221C18.4964 14.5793 17.2457 13.3286 15.7029 13.3286C14.1601 13.3286 12.9094 14.5793 12.9094 16.1221C12.9094 17.6649 14.1601 18.9156 15.7029 18.9156Z" fill="white"/>
<path d="M21.2899 24.1535V24.5027H10.116V24.1535C10.116 22.0304 11.834 20.3124 13.957 20.3124H17.4489C19.5719 20.3124 21.2899 22.0304 21.2899 24.1535Z" fill="white"/>
<path d="M32.8127 11.9319C32.5907 11.9319 32.3686 11.8607 32.1842 11.7224L29.6477 9.82002C29.4857 11.0114 28.4605 11.9319 27.2258 11.9319H19.5437C18.1958 11.9319 17.0994 10.8355 17.0994 9.48759V2.85305C17.0994 1.88651 17.7391 0.757937 19.5437 0.757937H27.2258C28.5275 0.757937 29.5946 1.78035 29.6659 3.06396L32.1423 1.00097C32.4524 0.739779 32.8882 0.683909 33.2569 0.857106C33.6257 1.0303 33.8603 1.39904 33.8603 1.8055V10.8843C33.8603 11.281 33.6354 11.6442 33.2807 11.8216C33.1326 11.8956 32.972 11.9319 32.8127 11.9319Z" fill="white"/>
</svg>
